<?xml version="1.0" ?><svg viewBox="0 0 32 32" xmlns="http://www.w3.org/2000/svg"><defs><style>.cls-1{fill:none;}</style></defs><title/><g id="SNAPCHAT"><rect class="cls-1" height="32" id="Frame" width="32"/><path d="M16,2A14,14,0,1,0,30,16,14,14,0,0,0,16,2Zm8.71,18.805c-.07.19-.38.3-1.01.51s-.77.15-1.03.35c-.46.35-.27.77-.63,1.06-.49.38-1.03-.21-2.03-.06-.82.13-.94.6-2.04,1.11a5.7455,5.7455,0,0,1-1.97.41,5.7455,5.7455,0,0,1-1.97-.41c-1.1-.51-1.22-.98-2.04-1.11-1-.15-1.54.44-2.03.06-.36-.29-.17-.71-.63-1.06-.26-.2-.4-.14-1.03-.35s-.94-.32-1.01-.51c-.21-.64,2.88-1.25,3.74005-3.51a1.39588,1.39588,0,0,0,.06-.19L9.54,15.555a.64585.64585,0,0,1,0-.91.62915.62915,0,0,1,.92,0l.88.88a18.87644,18.87644,0,0,0-.04-1.89,7.60462,7.60462,0,0,1-.03-1.71,4.91157,4.91157,0,0,1,1.08-2.55,4.91823,4.91823,0,0,1,3.64-1.55963V7.815l.01.00019.01-.00019v.00037A4.91823,4.91823,0,0,1,19.65,9.375a4.91157,4.91157,0,0,1,1.08,2.55,7.60462,7.60462,0,0,1-.03,1.71,18.87644,18.87644,0,0,0-.04,1.89l.88-.88a.62915.62915,0,0,1,.92,0,.64585.64585,0,0,1,0,.91l-1.55,1.55a1.39588,1.39588,0,0,0,.06.19C21.83,19.555,24.92,20.165,24.71,20.805Z" data-name="Snapchat" id="Snapchat-2"/></g></svg>